<?xml version="1.0" encoding="UTF-8"?>
<svg id="a" xmlns="http://www.w3.org/2000/svg" viewBox="0 0 513.45 444.87">
  <path
    d="M509.81,404.71L279.71,13.14C274.94,5.04,266.13,0,256.73,0c-9.41,0-18.21,5.04-22.99,13.15l-34.97,59.5-17.19-28.79-7.35,4.39c-17.38,10.38-23.07,32.96-12.7,50.34l67.51,113.07-67.77,113.68c-6.78,11.5-3.92,26.41,6.67,34.68,4.58,3.57,10.54,5.54,16.8,5.54h141.48c6.28,0,12.27-1.99,16.85-5.6,10.59-8.34,13.38-23.28,6.51-34.73l-124.34-208.25,31.49-53.58,197.57,336.19-395.14-.02,108.29-184.25c4.97-8.46,6.35-18.34,3.88-27.83-2.47-9.49-8.48-17.45-16.93-22.42l-7.38-4.34L3.71,404.56c-6.83,11.49-4.01,26.42,6.57,34.71,4.58,3.6,10.57,5.58,16.87,5.58l459.11.02c6.27,0,12.24-1.96,16.82-5.51,10.59-8.24,13.48-23.14,6.73-34.65ZM293.89,320.28h-76.89s38.41-64.44,38.41-64.44l38.48,64.44Z"
    fill="currentColor" />
</svg>